<?xml version="1.0" encoding="utf-8"?>
<!-- Generator: Adobe Illustrator 24.0.1, SVG Export Plug-In . SVG Version: 6.00 Build 0)  -->
<svg version="1.1" id="Layer_1" xmlns="http://www.w3.org/2000/svg" xmlns:xlink="http://www.w3.org/1999/xlink" x="0px" y="0px"
	 viewBox="0 0 450 113" style="enable-background:new 0 0 450 113;" xml:space="preserve">
<style type="text/css">
	.st0{fill:#FFFFFF;}
	.st1{fill:url(#SVGID_1_);}
</style>
<path class="st0" d="M195.7,51.3c0,19.9-14.8,35.2-34.2,35.2h-30.2V16h30.2C180.9,16,195.7,31.3,195.7,51.3z M180.1,51.3
	c0-12.1-7.7-19.7-18.7-19.7h-14.1v39.5h14.1C172.5,71,180.1,63.3,180.1,51.3z M204.2,16h15.1v14.1h-15.1V16z M204.2,36.1h15.1v50.4
	h-15.1V36.1z M270.3,71.4c0,11.6-9.9,16.5-20.9,16.5s-20.9-5.4-20.9-17.9h14.7c0,2.9,2,4.8,6.2,4.8s5.8-1.4,5.8-3.4
	c0-7.3-26.3-0.6-26.3-20.1c0-11.4,9.9-16.5,20.4-16.5c10.1,0,19.9,5.4,19.9,17.9h-14.7c0-2.9-2-4.8-5.2-4.8c-3.7,0-5.3,1.4-5.3,3.4
	C244,58.7,270.3,51.8,270.3,71.4z M305.5,50.6h-8.1v35.9h-15.1V50.6h-8.1V36.1h8.1V20h15.1v16.1h8.1V50.6z M340.8,35.1v17.1
	c-6.2-1-13.1,1.5-13.1,10.5v23.8h-15.1V36.1h15.1v8C329.4,38.2,334.5,35.1,340.8,35.1z M343.8,61.3c0-15,11.9-26.6,26.7-26.6
	c14.8,0,26.7,11.6,26.7,26.6s-11.9,26.6-26.7,26.6C355.7,87.9,343.8,76.3,343.8,61.3z M382,61.3c0-7.1-5-11.9-11.6-11.9
	c-6.5,0-11.6,4.7-11.6,11.9s5,11.9,11.6,11.9S382,68.5,382,61.3z M450,54.6v31.9h-15.1V55.9c0-5-2.9-7.2-6.7-7.2
	c-4.5,0-7.4,2.5-7.4,8.5v29.3h-15.1V36.1h15.1v4.6c2.3-3.5,6.6-6,13.1-6C443.3,34.7,450,42,450,54.6z"/>
<linearGradient id="SVGID_1_" gradientUnits="userSpaceOnUse" x1="0" y1="58.5148" x2="91" y2="58.5148" gradientTransform="matrix(1 0 0 1 0 -2)">
	<stop  offset="0" style="stop-color:#7EE068"/>
	<stop  offset="1" style="stop-color:#009671"/>
</linearGradient>
<path class="st1" d="M70.6,2.7c-8.4-5.4-15.2-2.4-18.5,7.1l-6.7,21.9c-0.7,2.1,0.3,3.8,2.2,3.8h18.6c5.8,0,10.3,7.1,5.6,12.8
	l-30.9,37c-1.4,1.8-3.6,1.1-3-1L45,56.2c0.7-2.1-0.3-3.8-2.2-3.8H30c-7.3,0-9.2-5.4-7.7-10.9l8.5-32c1.5-5.5-4-10.7-8.9-7.8
	C8.8,9.7,0,24.2,0,40.6c0,34.6,28.3,41,22.9,72.4C47.3,103.1,91,76.2,91,40.6C91,24.8,83,10.6,70.6,2.7z"/>
</svg>
