<?xml version="1.0" encoding="utf-8"?>
<!-- Generator: Adobe Illustrator 24.0.1, SVG Export Plug-In . SVG Version: 6.00 Build 0)  -->
<svg version="1.1" id="Layer_1" xmlns="http://www.w3.org/2000/svg" xmlns:xlink="http://www.w3.org/1999/xlink" x="0px" y="0px"
	 viewBox="0 0 283.5 283.5" style="enable-background:new 0 0 283.5 283.5;" xml:space="preserve">
<style type="text/css">
	.st0{fill:#606060;}
	.st1{fill:url(#SVGID_1_);}
	.st2{fill:url(#SVGID_2_);}
	.st3{fill:url(#SVGID_3_);}
</style>
<g>
	<path class="st0" d="M137.8,268.6l-7.8,7.8c-1.6,1.6-1.6,4.3,0,5.9c0.8,0.8,1.9,1.2,2.9,1.2s2.1-0.4,2.9-1.2l7.8-7.8
		c1.6-1.6,1.6-4.3,0-5.9C142,266.9,139.4,266.9,137.8,268.6z"/>
	<path class="st0" d="M148.2,227.2c-1.6-1.6-4.3-1.6-5.9,0L111.6,258c-1.6,1.6-1.6,4.3,0,5.9c0.8,0.8,1.9,1.2,2.9,1.2
		c1.1,0,2.1-0.4,2.9-1.2l30.8-30.8C149.9,231.4,149.9,228.8,148.2,227.2z"/>
	<path class="st0" d="M151.6,254.8l-2.3,2.3c-1.6,1.6-1.6,4.3,0,5.9c0.8,0.8,1.9,1.2,2.9,1.2c1.1,0,2.1-0.4,2.9-1.2l2.3-2.3
		c1.6-1.6,1.6-4.3,0-5.9C155.8,253.1,153.2,253.1,151.6,254.8z"/>
	<path class="st0" d="M9,139.8l-7.8,7.8c-1.6,1.6-1.6,4.3,0,5.9c0.8,0.8,1.9,1.2,2.9,1.2c1.1,0,2.1-0.4,2.9-1.2l7.8-7.8
		c1.6-1.6,1.6-4.3,0-5.9C13.3,138.2,10.7,138.2,9,139.8z"/>
	<path class="st0" d="M50.4,135.2L19.6,166c-1.6,1.6-1.6,4.3,0,5.9c0.8,0.8,1.9,1.2,2.9,1.2s2.1-0.4,2.9-1.2l30.8-30.8
		c1.6-1.6,1.6-4.3,0-5.9C54.7,133.6,52,133.6,50.4,135.2z"/>
	<path class="st0" d="M23.5,135.4c1.1,0,2.1-0.4,2.9-1.2l2.3-2.3c1.6-1.6,1.6-4.3,0-5.9c-1.6-1.6-4.3-1.6-5.9,0l-2.3,2.3
		c-1.6,1.6-1.6,4.3,0,5.9C21.3,135,22.4,135.4,23.5,135.4z"/>
	<path class="st0" d="M282.8,4.4c-0.2-2-1.8-3.6-3.8-3.8c-26.1-2.4-53.8,1.6-79.9,11.4c-26.9,10.2-52.3,26.6-73.3,47.7
		c-10,10-18.9,20.8-26.6,32.3l-8.9-4.5c-11.6-5.8-25.6-3.5-34.8,5.7l-14.3,14.3c-0.9,0.9-1.3,2.1-1.2,3.3c0.1,1.2,0.7,2.3,1.7,3
		l34.5,24.6c-1.4,4.1-2.7,8.2-3.8,12.4c-0.4,1.4,0,3,1.1,4l6.7,6.7l-16.5,24.8c-1.1,1.6-0.9,3.8,0.5,5.2l27.6,27.6
		c0.8,0.8,1.9,1.2,2.9,1.2c0.8,0,1.6-0.2,2.3-0.7l24.8-16.5l6.7,6.7c0.8,0.8,1.8,1.2,2.9,1.2c0.4,0,0.7,0,1.1-0.1
		c4.2-1.1,8.3-2.4,12.4-3.8l24.6,34.5c0.7,1,1.8,1.6,3,1.7c0.1,0,0.2,0,0.3,0c1.1,0,2.2-0.4,2.9-1.2l14.3-14.3
		c9.2-9.2,11.5-23.2,5.6-34.8l-4.5-8.9c11.5-7.7,22.3-16.6,32.3-26.6c21.1-21.1,37.5-46.4,47.7-73.3
		C281.2,58.2,285.2,30.6,282.8,4.4z M86.7,95.1l8.1,4.1c-2.1,3.5-4.2,7-6.1,10.6l-21-15C73.6,92,80.6,92,86.7,95.1z M50.6,110
		L60.6,100l24.3,17.3c-2.1,4.3-4,8.7-5.7,13.2L50.6,110z M95.3,211l-22.8-22.8l13.7-20.5l29.6,29.6L95.3,211z M81.1,150.8
		c1.5-5.4,3.3-10.8,5.4-16.1l62.3,62.3c-5.3,2-10.6,3.8-16.1,5.4L81.1,150.8z M173.4,232.9L153,204.3c4.5-1.8,8.9-3.7,13.2-5.7
		l17.3,24.3L173.4,232.9z M188.4,196.8c3,6.1,3,13,0.3,19l-15-21c3.6-1.9,7.2-3.9,10.6-6.1L188.4,196.8z M217.8,151.7
		c-17.9,17.9-38.5,32-60.7,41.9l-67.2-67.2c9.8-22.2,24-42.9,41.9-60.7c22.9-22.9,50.4-39.6,79.4-48.9l55.5,55.5
		C257.4,101.3,240.7,128.9,217.8,151.7z M269.3,63.2l-49.1-49.1c18-4.8,36.5-6.7,54.5-5.5C276,26.8,274.1,45.2,269.3,63.2z"/>
</g>
<g>
	<linearGradient id="SVGID_1_" gradientUnits="userSpaceOnUse" x1="13.6937" y1="237.7651" x2="77.705" y2="237.7651">
		<stop  offset="0" style="stop-color:#7EE068"/>
		<stop  offset="1" style="stop-color:#009671"/>
	</linearGradient>
	<path class="st1" d="M74.9,216.1l-7.6-7.6c-0.3-0.3-0.6-0.5-1-0.7c-4.7-2.5-10.5-2.7-16.7-0.6c-11.4,3.7-23.4,14.5-29.2,26.1
		c-7.9,16-6.6,31.9-6.6,32.6c0.2,2,1.8,3.6,3.8,3.8c0.2,0,1.4,0.1,3.4,0.1c5.6,0,17.4-0.8,29.2-6.7c11.7-5.8,22.4-17.8,26.1-29.2
		c2-6.3,1.8-12-0.6-16.7C75.5,216.8,75.2,216.4,74.9,216.1z"/>
	<linearGradient id="SVGID_2_" gradientUnits="userSpaceOnUse" x1="146.3961" y1="113.5388" x2="193.4556" y2="113.5388">
		<stop  offset="0" style="stop-color:#7EE068"/>
		<stop  offset="1" style="stop-color:#009671"/>
	</linearGradient>
	<circle class="st2" cx="169.9" cy="113.5" r="23.5"/>
	<linearGradient id="SVGID_3_" gradientUnits="userSpaceOnUse" x1="121.4822" y1="113.5388" x2="218.3696" y2="113.5388">
		<stop  offset="0" style="stop-color:#7EE068"/>
		<stop  offset="1" style="stop-color:#009671"/>
	</linearGradient>
	<path class="st3" d="M169.9,65.1c-26.7,0-48.4,21.7-48.4,48.4c0,26.7,21.7,48.4,48.4,48.4c26.7,0,48.4-21.7,48.4-48.4
		C218.4,86.8,196.6,65.1,169.9,65.1z M169.9,145.4c-17.6,0-31.8-14.3-31.8-31.8c0-17.6,14.3-31.8,31.8-31.8
		c17.6,0,31.8,14.3,31.8,31.8C201.8,131.1,187.5,145.4,169.9,145.4z"/>
</g>
</svg>
