<?xml version="1.0" encoding="utf-8"?>
<!-- Generator: Adobe Illustrator 24.0.1, SVG Export Plug-In . SVG Version: 6.00 Build 0)  -->
<svg version="1.1" id="Layer_1" xmlns="http://www.w3.org/2000/svg" xmlns:xlink="http://www.w3.org/1999/xlink" x="0px" y="0px"
	 viewBox="0 0 283.5 283.5" style="enable-background:new 0 0 283.5 283.5;" xml:space="preserve">
<style type="text/css">
	.st0{fill:#6C6D6D;}
	.st1{fill:url(#SVGID_1_);}
	.st2{fill:url(#SVGID_2_);}
	.st3{fill:url(#SVGID_3_);}
	.st4{fill:url(#SVGID_4_);}
	.st5{fill:url(#SVGID_5_);}
	.st6{fill:url(#SVGID_6_);}
	.st7{fill:url(#SVGID_7_);}
	.st8{fill:url(#SVGID_8_);}
</style>
<path class="st0" d="M283.2,204.4l-31-81c-0.8-2.1-3.1-3.2-5.3-2.4l-32.7,11.7c-1.1,0.4-1.9,1.2-2.4,2.2c-0.5,1-0.5,2.2-0.1,3.2
	l2.8,7.2l-22.3,10.6l-36.6-6.9c-7.2-1.3-14.7,0.4-20.5,4.7l-6.5,4.9l-4.3-3.1c-6.6-4.7-15.1-6.2-22.9-3.9l-14,4.2l-18.4-11l2.6-6.7
	c0.4-1,0.4-2.2-0.1-3.2c-0.5-1-1.3-1.8-2.4-2.2L36.5,121c-2.1-0.8-4.5,0.3-5.3,2.4l-31,81c-0.8,2.1,0.2,4.4,2.2,5.3l31,13.4
	c0.5,0.2,1.1,0.3,1.6,0.3c0.5,0,1.1-0.1,1.6-0.3c1-0.4,1.9-1.3,2.3-2.3l3.1-7.9l25.7,14.5c-3.5,5.1-3,12.1,1.5,16.6c0,0,0,0,0,0
	c2.5,2.5,5.9,3.8,9.2,3.8c0.1,0,0.2,0,0.3,0c0.3,3.1,1.6,5.9,3.8,8.1c2.5,2.5,5.9,3.8,9.2,3.8c0.1,0,0.2,0,0.3,0
	c0.3,2.9,1.5,5.8,3.8,8.1c0,0,0,0,0,0c2.5,2.5,5.9,3.8,9.2,3.8c0.1,0,0.2,0,0.3,0c0.3,3.1,1.6,5.9,3.8,8.1c2.5,2.5,5.7,3.8,9.2,3.8
	c3.5,0,6.8-1.4,9.2-3.8l4.9-4.9l6.7,5c2.6,1.9,5.7,2.9,8.7,2.9c3.8,0,7.6-1.5,10.4-4.3l0.5-0.5c2.1-2.1,3.5-4.9,4-7.8
	c4.9,1.4,10.5,0.1,14.3-3.7l0.3-0.3c2.4-2.4,3.8-5.4,4.2-8.6c5,1.5,10.6,0.2,14.5-3.7l0.2-0.2c2.3-2.3,3.7-5.2,4.1-8.4
	c4.8,1.2,10-0.2,13.7-3.9c3-3,4.6-7.2,4.2-11.5c-0.1-0.9-0.2-1.8-0.5-2.6l24.1-11.8l2.2,5.6c0.4,1,1.2,1.9,2.3,2.3
	c0.5,0.2,1.1,0.3,1.6,0.3c0.6,0,1.1-0.1,1.6-0.3l31-13.4C283,208.8,284,206.5,283.2,204.4z M32.8,213.7L9.5,203.7l28.1-73.5l6.9,2.5
	l-13.3,37.8c-0.8,2.2,0.4,4.5,2.5,5.3c0.5,0.2,0.9,0.2,1.4,0.2c1.7,0,3.3-1.1,3.9-2.8l13.3-37.7l10.1,3.6L32.8,213.7z M75.2,238.1
	c-1.9-1.9-1.9-4.9,0-6.7l8.9-8.9c1.9-1.9,4.9-1.9,6.7,0c0.9,0.9,1.4,2.1,1.4,3.4c0,1.3-0.5,2.5-1.4,3.4l-8.9,8.9
	C80.1,240,77.1,240,75.2,238.1z M88.5,250c-0.9-0.9-1.4-2.1-1.4-3.4s0.5-2.5,1.4-3.4l0,0l8.1-8.1c0.2-0.2,0.5-0.5,0.7-0.8l0,0
	c1.9-1.9,4.9-1.9,6.7,0c0.9,0.9,1.4,2.1,1.4,3.4c0,1.3-0.5,2.5-1.4,3.4l0,0l-8.1,8.1c-0.2,0.2-0.5,0.5-0.7,0.8l0,0
	c-0.9,0.9-2.1,1.4-3.4,1.4S89.4,250.9,88.5,250z M101.9,261.9c-1.9-1.9-1.9-4.9,0-6.7l8.9-8.9c0.9-0.9,2.1-1.4,3.4-1.4
	c1.3,0,2.5,0.5,3.4,1.4c0.9,0.9,1.4,2.1,1.4,3.4s-0.5,2.5-1.4,3.4l-8.9,8.9C106.7,263.7,103.7,263.7,101.9,261.9z M121.9,273.8
	c-0.9,0.9-2.1,1.4-3.4,1.4c-1.3,0-2.5-0.5-3.4-1.4c-1.9-1.9-1.9-4.9,0-6.7l0,0l8.1-8.1c0.2-0.2,0.5-0.5,0.7-0.8l0,0
	c0.9-0.9,2.1-1.4,3.4-1.4c1.3,0,2.5,0.5,3.4,1.4c0.9,0.9,1.4,2.1,1.4,3.4c0,1.3-0.5,2.5-1.4,3.4L121.9,273.8z M208.5,235.2
	c-2.3,2.3-5.9,2.5-8.5,0.4l-3.2-2.7c-0.2-0.3-0.5-0.6-0.8-0.9l-7.5-6c-1.8-1.4-4.4-1.2-5.8,0.6c-1.4,1.8-1.2,4.4,0.6,5.8l6.4,5.2
	c0.2,0.2,0.4,0.5,0.6,0.7c1.3,1.2,2.1,2.8,2.1,4.5c0.1,1.7-0.6,3.4-1.8,4.6l-0.2,0.2c-2.2,2.2-5.6,2.5-8.1,0.7l-6.4-4.6
	c0,0,0,0-0.1,0l-2.4-1.7c-1.9-1.3-4.5-0.9-5.8,1c-1.3,1.9-0.9,4.5,1,5.8l2.5,1.8c1.5,1.1,2.4,2.7,2.6,4.6c0.2,1.8-0.5,3.6-1.8,5
	l-0.3,0.3c-2.3,2.3-6.1,2.5-8.6,0.3l-6.9-6.1c-1.7-1.5-4.3-1.4-5.9,0.4c-1.5,1.7-1.4,4.3,0.4,5.9l2.4,2.1c1.3,1.2,2.1,2.7,2.1,4.5
	c0.1,1.7-0.6,3.4-1.8,4.6l-0.5,0.5c-2.2,2.2-5.7,2.5-8.2,0.6l-6-4.5c1.3-2.1,2.1-4.5,2.1-7c0-3.5-1.4-6.8-3.8-9.2
	c-2.5-2.5-5.7-3.8-9.2-3.8c-0.1,0-0.2,0-0.3,0c-0.3-3-1.6-5.9-3.8-8.1c-2.5-2.5-5.7-3.8-9.2-3.8c-0.1,0-0.2,0-0.3,0
	c-0.3-2.9-1.5-5.8-3.8-8.1c-2.6-2.6-6.1-3.9-9.6-3.8c-0.3-3.1-1.6-5.9-3.8-8.1c-5.1-5.1-13.4-5.1-18.5,0l-4.5,4.5l-28.5-16.1
	L66,152.6l18.8,11.2c1,0.6,2.2,0.7,3.3,0.4l15.8-4.7c5.3-1.6,11.2-0.6,15.7,2.6l2.2,1.6l-22.2,16.5c-3.4,2.5-5.3,6.3-5.3,10.5
	c0,4.2,1.9,8.1,5.2,10.6c6.3,4.7,14.9,5.1,21.6,0.9l17.4-10.9c2,4,5.8,9.5,12.4,12.9c7.6,3.9,16.9,4,27.6,0.3l29.3,21.1
	c1.5,1.1,2.4,2.7,2.6,4.6C210.5,232.1,209.8,233.9,208.5,235.2z M213.8,219.9l-32.4-23.3c-1.1-0.8-2.6-1-3.9-0.5
	c-9.2,3.6-16.9,3.9-22.8,0.9c-7.8-4-10.2-12.7-10.2-12.8c-0.3-1.3-1.3-2.3-2.5-2.8c-1.2-0.5-2.6-0.4-3.7,0.3l-21.6,13.6
	c-3.7,2.4-8.6,2.1-12.2-0.5c-1.2-0.9-2-2.4-1.9-3.9c0-1.6,0.7-3,2-3.9l35.7-26.5c4-3,9.1-4.2,14-3.2l37.9,7.1c0.9,0.2,1.8,0,2.5-0.3
	l23-10.9l21.5,54.5L213.8,219.9z M250.6,213.7L221.1,139l10.1-3.6l13.3,37.7c0.6,1.7,2.2,2.8,3.9,2.8c0.5,0,0.9-0.1,1.4-0.2
	c2.2-0.8,3.3-3.1,2.5-5.3L239,132.6l6.9-2.5l28.1,73.5L250.6,213.7z"/>
<g>
	<linearGradient id="SVGID_1_" gradientUnits="userSpaceOnUse" x1="225.2999" y1="65.0529" x2="256.613" y2="65.0529">
		<stop  offset="0" style="stop-color:#7EE068"/>
		<stop  offset="1" style="stop-color:#009671"/>
	</linearGradient>
	<path class="st1" d="M252.5,60.9h-23c-2.3,0-4.2,1.9-4.2,4.2c0,2.3,1.9,4.2,4.2,4.2h23c2.3,0,4.2-1.9,4.2-4.2
		C256.6,62.8,254.8,60.9,252.5,60.9z"/>
	<linearGradient id="SVGID_2_" gradientUnits="userSpaceOnUse" x1="216.6713" y1="36.9014" x2="242.2334" y2="36.9014">
		<stop  offset="0" style="stop-color:#7EE068"/>
		<stop  offset="1" style="stop-color:#009671"/>
	</linearGradient>
	<path class="st2" d="M220.8,46.1c0.7,0,1.4-0.2,2.1-0.6l17.3-10.1c2-1.2,2.6-3.7,1.5-5.7c-1.2-2-3.7-2.6-5.7-1.5l-17.3,10.1
		c-2,1.2-2.6,3.7-1.5,5.7C218,45.4,219.4,46.1,220.8,46.1z"/>
	<linearGradient id="SVGID_3_" gradientUnits="userSpaceOnUse" x1="216.6713" y1="93.204" x2="242.2334" y2="93.204">
		<stop  offset="0" style="stop-color:#7EE068"/>
		<stop  offset="1" style="stop-color:#009671"/>
	</linearGradient>
	<path class="st3" d="M240.2,94.7l-17.3-10.1c-2-1.2-4.5-0.5-5.7,1.5c-1.2,2-0.5,4.5,1.5,5.7l17.3,10.1c0.7,0.4,1.4,0.6,2.1,0.6
		c1.4,0,2.8-0.7,3.6-2.1C242.8,98.4,242.2,95.9,240.2,94.7z"/>
	<linearGradient id="SVGID_4_" gradientUnits="userSpaceOnUse" x1="26.8516" y1="65.0529" x2="58.1648" y2="65.0529">
		<stop  offset="0" style="stop-color:#7EE068"/>
		<stop  offset="1" style="stop-color:#009671"/>
	</linearGradient>
	<path class="st4" d="M58.2,65.1c0-2.3-1.9-4.2-4.2-4.2H31c-2.3,0-4.2,1.9-4.2,4.2c0,2.3,1.9,4.2,4.2,4.2h23
		C56.3,69.2,58.2,67.3,58.2,65.1z"/>
	<linearGradient id="SVGID_5_" gradientUnits="userSpaceOnUse" x1="41.2312" y1="36.9014" x2="66.7933" y2="36.9014">
		<stop  offset="0" style="stop-color:#7EE068"/>
		<stop  offset="1" style="stop-color:#009671"/>
	</linearGradient>
	<path class="st5" d="M64.7,38.4L47.5,28.3c-2-1.2-4.5-0.5-5.7,1.5c-1.2,2-0.5,4.5,1.5,5.7l17.3,10.1c0.7,0.4,1.4,0.6,2.1,0.6
		c1.4,0,2.8-0.7,3.6-2.1C67.4,42.1,66.7,39.5,64.7,38.4z"/>
	<linearGradient id="SVGID_6_" gradientUnits="userSpaceOnUse" x1="41.2312" y1="93.204" x2="66.7933" y2="93.204">
		<stop  offset="0" style="stop-color:#7EE068"/>
		<stop  offset="1" style="stop-color:#009671"/>
	</linearGradient>
	<path class="st6" d="M60.5,84.6L43.3,94.7c-2,1.2-2.6,3.7-1.5,5.7c0.8,1.3,2.2,2.1,3.6,2.1c0.7,0,1.4-0.2,2.1-0.6l17.3-10.1
		c2-1.2,2.6-3.7,1.5-5.7C65.1,84.1,62.5,83.4,60.5,84.6z"/>
	<linearGradient id="SVGID_7_" gradientUnits="userSpaceOnUse" x1="101.5933" y1="65.0529" x2="181.8714" y2="65.0529">
		<stop  offset="0" style="stop-color:#7EE068"/>
		<stop  offset="1" style="stop-color:#009671"/>
	</linearGradient>
	<path class="st7" d="M141.7,24.9c-22.1,0-40.1,18-40.1,40.1c0,22.1,18,40.1,40.1,40.1c22.1,0,40.1-18,40.1-40.1
		C181.9,42.9,163.9,24.9,141.7,24.9z M166.9,52.7l-28.4,30.5c-0.8,0.8-1.9,1.3-3,1.3c-1.2,0-2.3-0.5-3-1.3l-15.9-17
		c-1.6-1.7-1.5-4.3,0.2-5.9c1.7-1.6,4.3-1.5,5.9,0.2l12.8,13.7L160.8,47c1.6-1.7,4.2-1.8,5.9-0.2C168.4,48.4,168.5,51,166.9,52.7z"
		/>
	<linearGradient id="SVGID_8_" gradientUnits="userSpaceOnUse" x1="76.6794" y1="65.0529" x2="206.7852" y2="65.0529">
		<stop  offset="0" style="stop-color:#7EE068"/>
		<stop  offset="1" style="stop-color:#009671"/>
	</linearGradient>
	<path class="st8" d="M141.7,0c-35.9,0-65.1,29.2-65.1,65.1c0,35.9,29.2,65.1,65.1,65.1c35.9,0,65.1-29.2,65.1-65.1
		C206.8,29.2,177.6,0,141.7,0z M141.7,113.5c-26.7,0-48.4-21.7-48.4-48.4s21.7-48.4,48.4-48.4c26.7,0,48.4,21.7,48.4,48.4
		S168.4,113.5,141.7,113.5z"/>
</g>
</svg>
