<?xml version="1.0" standalone="no"?>
<!DOCTYPE svg PUBLIC "-//W3C//DTD SVG 20010904//EN"
 "http://www.w3.org/TR/2001/REC-SVG-20010904/DTD/svg10.dtd">
<svg version="1.0" xmlns="http://www.w3.org/2000/svg"
 width="292.000000pt" height="292.000000pt" viewBox="0 0 292.000000 292.000000"
 preserveAspectRatio="xMidYMid meet">
<metadata>
Created by potrace 1.14, written by Peter Selinger 2001-2017
</metadata>
<g transform="translate(0.000000,292.000000) scale(0.100000,-0.100000)"
fill="#000000" stroke="none">
<path d="M2365 1972 c-323 -31 -616 -164 -720 -326 -159 -249 2 -513 390 -639
79 -26 146 -43 208 -52 116 -18 170 -23 232 -21 l70 1 1 108 1 107 -56 1
c-184 2 -375 44 -514 114 -87 44 -138 86 -167 136 -20 37 -21 45 -11 81 44
144 366 272 702 277 l45 1 1 111 1 110 -77 -3 c-42 -2 -89 -4 -106 -6z"/>
<path d="M4 1849 c28 -514 232 -877 501 -896 192 -14 367 157 464 453 28 87
56 211 65 288 3 21 7 41 11 44 3 3 22 -3 42 -13 78 -42 163 -196 207 -375 30
-127 34 -148 42 -281 3 -57 8 -106 10 -108 1 -2 49 -4 106 -4 l103 -1 1 69 c2
116 -18 261 -53 395 -67 254 -185 436 -330 506 -53 26 -70 28 -200 32 l-143 4
-1 -68 c-2 -318 -131 -664 -266 -715 -83 -31 -178 56 -248 230 -26 64 -53 154
-61 206 -3 17 -7 36 -9 43 -3 8 -8 44 -11 80 -4 37 -8 74 -10 82 -1 8 -3 43
-3 78 l-1 62 -111 0 -111 0 6 -111z"/>
<path d="M1935 1489 c-13 -5 0 -8 39 -8 33 -1 56 2 53 6 -10 10 -69 11 -92 2z"/>
<path d="M2126 1477 c-27 -19 -30 -19 -41 -4 -13 18 -35 23 -35 8 0 -5 7 -14
15 -21 9 -7 13 -21 10 -31 -3 -9 -2 -20 4 -23 5 -3 12 5 15 18 3 14 15 27 25
31 20 6 47 33 40 39 -2 3 -17 -5 -33 -17z"/>
<path d="M2193 1489 c-11 -5 5 -8 39 -8 31 -1 59 3 62 7 6 10 -76 10 -101 1z"/>
<path d="M2334 1488 c-3 -4 2 -8 11 -8 12 0 15 -5 10 -17 -15 -36 -17 -53 -7
-53 6 0 16 16 22 35 9 28 17 35 37 35 15 0 24 3 20 6 -9 10 -88 11 -93 2z"/>
<path d="M2460 1488 c0 -10 97 -10 104 0 2 4 -20 7 -50 7 -30 0 -54 -3 -54 -7z"/>
<path d="M2594 1465 c-6 -18 -7 -41 -4 -51 6 -15 9 -11 19 19 l13 39 16 -24
c8 -13 17 -25 19 -27 2 -3 16 4 31 15 50 37 52 37 36 -3 -15 -35 -15 -36 2
-23 15 13 44 69 44 85 0 13 -25 2 -60 -25 l-38 -30 -21 28 c-26 37 -45 36 -57
-3z"/>
<path d="M2812 1488 c-9 -4 9 -7 41 -7 31 -1 57 3 57 7 0 10 -74 10 -98 0z"/>
<path d="M1918 1451 c8 -5 27 -7 43 -6 19 2 28 -2 26 -9 -2 -6 -24 -11 -50
-10 -26 0 -47 -3 -47 -8 0 -15 98 -9 114 8 24 24 10 34 -47 34 -33 0 -47 -3
-39 -9z"/>
<path d="M2172 1455 c3 -3 21 -7 41 -8 20 -2 40 -6 43 -10 8 -8 5 -9 -53 -11
-63 -2 -64 -16 -2 -16 54 0 79 12 79 37 0 9 -17 13 -57 13 -31 0 -54 -2 -51
-5z"/>
<path d="M2446 1452 c-6 -10 90 -9 100 1 4 4 -16 7 -44 7 -28 0 -53 -3 -56 -8z"/>
<path d="M2805 1451 c11 -5 29 -7 39 -5 10 2 23 1 29 -3 16 -10 -14 -21 -44
-16 -16 2 -37 0 -46 -6 -14 -8 -5 -10 38 -11 54 0 79 11 79 37 0 9 -17 13 -57
12 -40 0 -52 -3 -38 -8z"/>
<path d="M2439 1419 c-9 -5 8 -9 45 -9 33 0 56 3 52 7 -10 10 -82 12 -97 2z"/>
</g>
</svg>
