<?xml version="1.0" encoding="utf-8"?>
<!-- Generator: Adobe Illustrator 24.0.1, SVG Export Plug-In . SVG Version: 6.00 Build 0)  -->
<svg version="1.1" id="Layer_1" xmlns="http://www.w3.org/2000/svg" xmlns:xlink="http://www.w3.org/1999/xlink" x="0px" y="0px"
	 viewBox="0 0 283.5 283.5" style="enable-background:new 0 0 283.5 283.5;" xml:space="preserve">
<style type="text/css">
	.st0{fill:#6C6D6D;}
	.st1{fill:url(#SVGID_1_);}
	.st2{fill:url(#SVGID_2_);}
	.st3{fill:url(#SVGID_3_);}
	.st4{fill:url(#SVGID_4_);}
	.st5{fill:url(#SVGID_5_);}
	.st6{fill:url(#SVGID_6_);}
	.st7{fill:url(#SVGID_7_);}
</style>
<g>
	<g>
		<path class="st0" d="M240.8,85.8h7.3c2.5,0,4.5-1.9,4.5-4.2c0-2.3-2-4.2-4.5-4.2h-7.3c-2.5,0-4.5,1.9-4.5,4.2
			C236.3,84,238.3,85.8,240.8,85.8z"/>
		<path class="st0" d="M240.8,64.2c0.8,0,1.5-0.2,2.2-0.5l6.3-3.3c2.2-1.1,2.9-3.7,1.7-5.7c-1.2-2-4-2.7-6.2-1.6l-6.3,3.3
			c-2.2,1.1-2.9,3.7-1.7,5.7C237.7,63.4,239.2,64.2,240.8,64.2z"/>
		<path class="st0" d="M249.4,103l-6.3-3.3c-2.2-1.1-5-0.4-6.2,1.6c-1.2,2-0.5,4.5,1.7,5.7l6.3,3.3c0.7,0.4,1.5,0.5,2.2,0.5
			c1.6,0,3.1-0.8,4-2.1C252.3,106.6,251.5,104.1,249.4,103z"/>
		<path class="st0" d="M43.1,77.5h-7.3c-2.5,0-4.5,1.9-4.5,4.2c0,2.3,2,4.2,4.5,4.2h7.3c2.5,0,4.5-1.9,4.5-4.2
			C47.6,79.4,45.6,77.5,43.1,77.5z"/>
		<path class="st0" d="M34.5,60.4l6.3,3.3c0.7,0.4,1.5,0.5,2.2,0.5c1.6,0,3.1-0.8,4-2.1c1.2-2,0.5-4.5-1.7-5.7L39,53.1
			c-2.2-1.1-5-0.4-6.2,1.6C31.6,56.7,32.4,59.2,34.5,60.4z"/>
		<path class="st0" d="M40.8,99.7l-6.3,3.3c-2.2,1.1-2.9,3.7-1.7,5.7c0.8,1.3,2.4,2.1,4,2.1c0.8,0,1.5-0.2,2.2-0.5l6.3-3.3
			c2.2-1.1,2.9-3.7,1.7-5.7C45.8,99.2,43,98.6,40.8,99.7z"/>
		<path class="st0" d="M141.3,0C117.8,0.2,95.7,8.6,79,23.8C62.2,39,52.8,59.1,52.5,80.6c-0.2,15.9,4.5,31.4,13.8,44.7
			C77,140.8,84,157.5,87.1,175.1c0.4,2,2.3,3.5,4.5,3.5c0.2,0,0.5,0,0.7-0.1c2.5-0.4,4.2-2.5,3.8-4.8c-3.3-18.7-10.7-36.5-22.1-52.9
			c-8.3-12-12.6-25.9-12.4-40.2C62.2,41,98,8.6,141.4,8.3c21.6-0.1,41.9,7.4,57.2,21.3c15.3,13.9,23.7,32.4,23.7,52.1
			c0,14-4.4,27.7-12.6,39.5c-11.4,16.3-18.8,34-22,52.6c-0.4,2.3,1.3,4.4,3.8,4.7c2.5,0.4,4.8-1.2,5.2-3.5c3-17.5,10-34.1,20.7-49.4
			c9.2-13.1,14.1-28.3,14.1-44c0-21.9-9.4-42.5-26.4-57.9C187.9,8.3,165.3-0.1,141.3,0z"/>
	</g>
	<g>
		<linearGradient id="SVGID_1_" gradientUnits="userSpaceOnUse" x1="70.6868" y1="200.6951" x2="213.2068" y2="200.6951">
			<stop  offset="0" style="stop-color:#7EE068"/>
			<stop  offset="1" style="stop-color:#009671"/>
		</linearGradient>
		<path class="st1" d="M202.6,191H81.3c-5.9,0-10.6,4.3-10.6,9.7s4.8,9.7,10.6,9.7h121.3c5.9,0,10.6-4.3,10.6-9.7
			S208.5,191,202.6,191z"/>
		<linearGradient id="SVGID_2_" gradientUnits="userSpaceOnUse" x1="113.1395" y1="273.2222" x2="170.754" y2="273.2222">
			<stop  offset="0" style="stop-color:#7EE068"/>
			<stop  offset="1" style="stop-color:#009671"/>
		</linearGradient>
		<path class="st2" d="M113.1,268.2c0,8.4,7.5,15.2,16.7,15.2h24.3c9.2,0,16.7-6.8,16.7-15.2V263h-57.6V268.2z"/>
		<linearGradient id="SVGID_3_" gradientUnits="userSpaceOnUse" x1="94.9455" y1="225.609" x2="188.9481" y2="225.609">
			<stop  offset="0" style="stop-color:#7EE068"/>
			<stop  offset="1" style="stop-color:#009671"/>
		</linearGradient>
		<path class="st3" d="M181.4,218.7h-78.8c-4.2,0-7.6,3.1-7.6,6.9s3.4,6.9,7.6,6.9h78.8c4.2,0,7.6-3.1,7.6-6.9
			S185.6,218.7,181.4,218.7z"/>
		<linearGradient id="SVGID_4_" gradientUnits="userSpaceOnUse" x1="94.9455" y1="247.7547" x2="188.9481" y2="247.7547">
			<stop  offset="0" style="stop-color:#7EE068"/>
			<stop  offset="1" style="stop-color:#009671"/>
		</linearGradient>
		<path class="st4" d="M181.4,240.8h-78.8c-4.2,0-7.6,3.1-7.6,6.9s3.4,6.9,7.6,6.9h78.8c4.2,0,7.6-3.1,7.6-6.9
			S185.6,240.8,181.4,240.8z"/>
	</g>
</g>
<g>
	<linearGradient id="SVGID_5_" gradientUnits="userSpaceOnUse" x1="117.4611" y1="85.1059" x2="170.4987" y2="85.1059">
		<stop  offset="0" style="stop-color:#7EE068"/>
		<stop  offset="1" style="stop-color:#009671"/>
	</linearGradient>
	<path class="st5" d="M168.7,130.5c-0.8,0.3-1.6,0.7-2.4,1.1l-0.3,0.1c-7.8,3.6-12.8,9.3-16,14.9l4.3-35.9l-14.3,0.6l3.9-46.2
		l-13,56.1h10.5l-4.7,31.3c-2.3-5.7-6.4-12.8-13.7-17.9c-1-0.7-2-1.3-3-1.9c-1.1-4.6-2-9.8-2.4-15.4C114.9,81,144,51,140.7,17.6
		C140.7,17.6,179.2,82.1,168.7,130.5z"/>
	<linearGradient id="SVGID_6_" gradientUnits="userSpaceOnUse" x1="148.211" y1="146.1159" x2="192.1148" y2="146.1159">
		<stop  offset="0" style="stop-color:#7EE068"/>
		<stop  offset="1" style="stop-color:#009671"/>
	</linearGradient>
	<path class="st6" d="M192.1,126.3c0,0-7,50.2-42.7,37.7c1.4-1.3,2.8-2.6,4.2-3.9c1.6-1.5,3.3-3,5-4.4c1.7-1.4,3.3-2.7,5.1-3.9
		c1.7-1.2,3.5-2.4,5.3-3.5l2.7-1.7c0.9-0.6,1.8-1.2,2.7-1.8c0.9-0.6,1.8-1.2,2.7-1.9c0.9-0.7,1.7-1.4,2.6-2.1
		c1.7-1.5,3.3-3.1,4.9-4.9c-1.7,1.3-3.5,2.6-5.3,3.6c-0.9,0.6-1.8,1.1-2.7,1.6c-0.9,0.5-1.8,1-2.7,1.4l-5.5,2.8
		c-1.8,1-3.7,2-5.5,3.1c-0.3,0.2-0.7,0.4-1,0.6c-1.5,0.9-2.9,2-4.4,3.1c-1.8,1.4-3.5,2.8-5.1,4.3c-1.2,1.1-2.5,2.3-3.7,3.5
		c-0.1,0.1-0.1,0.1-0.2,0.2c0.1-0.4,0.2-0.9,0.4-1.4c1.8-6.2,6.5-17.2,18.4-22.6c0.1,0,0.2-0.1,0.3-0.1
		C184.3,128.2,192.1,126.3,192.1,126.3z"/>
	<linearGradient id="SVGID_7_" gradientUnits="userSpaceOnUse" x1="91.7788" y1="146.1159" x2="135.6847" y2="146.1159">
		<stop  offset="0" style="stop-color:#7EE068"/>
		<stop  offset="1" style="stop-color:#009671"/>
	</linearGradient>
	<path class="st7" d="M104.7,139.5c-1.8-1.1-3.6-2.3-5.3-3.6c1.5,1.8,3.2,3.5,4.9,4.9c0.9,0.7,1.7,1.4,2.6,2.1
		c0.9,0.7,1.8,1.3,2.7,1.9c0.9,0.6,1.8,1.2,2.7,1.8l2.7,1.7c1.8,1.1,3.6,2.3,5.3,3.5c1.7,1.2,3.4,2.5,5.1,3.9c1.7,1.4,3.3,2.9,5,4.4
		c1.4,1.3,2.8,2.6,4.2,3.9c-35.6,12.5-42.7-37.7-42.7-37.7s8,2,25.1,9.9c1.7,0.8,3.3,1.7,4.8,2.7c9.1,6.3,12.7,16,13.9,21.1
		c0,0.1,0,0.1,0.1,0.2c0,0-0.1,0-0.1-0.1c-1.3-1.2-2.5-2.4-3.8-3.6c-1.3-1.2-2.7-2.4-4.1-3.5c-0.4-0.3-0.7-0.6-1.1-0.9
		c-1.7-1.4-3.6-2.6-5.4-3.7c-1.8-1.1-3.7-2.1-5.5-3.1l-5.5-2.8c-0.9-0.5-1.8-0.9-2.7-1.4C106.5,140.6,105.6,140,104.7,139.5z"/>
</g>
</svg>
