<?xml version="1.0" encoding="utf-8"?>
<!-- Generator: Adobe Illustrator 24.0.1, SVG Export Plug-In . SVG Version: 6.00 Build 0)  -->
<svg version="1.1" id="Layer_1" xmlns="http://www.w3.org/2000/svg" xmlns:xlink="http://www.w3.org/1999/xlink" x="0px" y="0px"
	 viewBox="0 0 283.5 283.5" style="enable-background:new 0 0 283.5 283.5;" xml:space="preserve">
<style type="text/css">
	.st0{fill:#6C6D6D;}
	.st1{fill:url(#SVGID_1_);}
	.st2{fill:url(#SVGID_2_);}
	.st3{fill:url(#SVGID_3_);}
	.st4{fill:url(#SVGID_4_);}
	.st5{fill:url(#SVGID_5_);}
	.st6{fill:url(#SVGID_6_);}
	.st7{fill:url(#SVGID_7_);}
	.st8{fill:url(#SVGID_8_);}
</style>
<g>
	<path class="st0" d="M237.3,114.3v6.6c0,2.7,1.6,4.9,3.6,4.9c2,0,3.6-2.2,3.6-4.9v-6.6c0-2.7-1.6-4.9-3.6-4.9
		C238.9,109.4,237.3,111.6,237.3,114.3z"/>
	<path class="st0" d="M279.8,86.4h-9.5V48.7c0-9.9-6-18-13.4-18H48.1c-7.4,0-13.4,8.1-13.4,18v76.8H42V48.7c0-4.5,2.7-8.2,6.1-8.2
		h25.5v93.3h7.3V40.5H257c3.3,0,6.1,3.7,6.1,8.2v37.7H241c-12.7,0-23.1,14-23.1,31.2s10.4,31.2,23.1,31.2h22.1v37.7
		c0,4.5-2.7,8.2-6.1,8.2H133.5v9.8H257c7.4,0,13.4-8.1,13.4-18v-37.7h9.5c2,0,3.6-2.2,3.6-4.9V91.4
		C283.5,88.6,281.8,86.4,279.8,86.4z M276.2,138.9H241c-8.7,0-15.8-9.6-15.8-21.3c0-11.8,7.1-21.3,15.8-21.3h35.2V138.9z"/>
	<linearGradient id="SVGID_1_" gradientUnits="userSpaceOnUse" x1="50.5277" y1="238.9012" x2="125.8342" y2="238.9012">
		<stop  offset="0" style="stop-color:#7EE068"/>
		<stop  offset="1" style="stop-color:#009671"/>
	</linearGradient>
	<path class="st1" d="M50.5,225v9.6c0,10.4,16.2,18.2,37.7,18.2s37.7-7.8,37.7-18.2V225c-7.7,6.7-21.1,10.8-37.7,10.8
		S58.3,231.7,50.5,225z"/>
	<linearGradient id="SVGID_2_" gradientUnits="userSpaceOnUse" x1="50.5277" y1="214.6089" x2="125.8342" y2="214.6089">
		<stop  offset="0" style="stop-color:#7EE068"/>
		<stop  offset="1" style="stop-color:#009671"/>
	</linearGradient>
	<path class="st2" d="M50.5,200.7v9.6c0,10.4,16.2,18.2,37.7,18.2s37.7-7.8,37.7-18.2v-9.6c-7.7,6.7-21.1,10.8-37.7,10.8
		S58.3,207.4,50.5,200.7z"/>
	<linearGradient id="SVGID_3_" gradientUnits="userSpaceOnUse" x1="50.5277" y1="190.3165" x2="125.8342" y2="190.3165">
		<stop  offset="0" style="stop-color:#7EE068"/>
		<stop  offset="1" style="stop-color:#009671"/>
	</linearGradient>
	<path class="st3" d="M50.5,176.4v9.6c0,10.4,16.2,18.2,37.7,18.2s37.7-7.8,37.7-18.2v-9.6c-7.7,6.7-21.1,10.8-37.7,10.8
		S58.3,183.1,50.5,176.4z"/>
	<g>
		<linearGradient id="SVGID_4_" gradientUnits="userSpaceOnUse" x1="-6.804606e-04" y1="149.3559" x2="70.0914" y2="149.3559">
			<stop  offset="0" style="stop-color:#7EE068"/>
			<stop  offset="1" style="stop-color:#009671"/>
		</linearGradient>
		<path class="st4" d="M37.7,167.6c2.5,0,4.9-0.1,7.3-0.3v-3.1l0.2,0.2c-0.1-0.9-0.2-1.7-0.2-2.6c0-10.2,9.9-18.3,25.2-21.9
			c-6.4-5.3-18.3-8.7-32.4-8.7C16.2,131.1,0,139,0,149.4C0,159.7,16.2,167.6,37.7,167.6z"/>
		<linearGradient id="SVGID_5_" gradientUnits="userSpaceOnUse" x1="-6.804606e-04" y1="177.9652" x2="45.1359" y2="177.9652">
			<stop  offset="0" style="stop-color:#7EE068"/>
			<stop  offset="1" style="stop-color:#009671"/>
		</linearGradient>
		<path class="st5" d="M37.7,191.9c2.5,0,4.9-0.1,7.3-0.3v-3.1l0.2,0.2c-0.1-0.9-0.2-1.7-0.2-2.6v-11.4c-2.3,0.2-4.8,0.3-7.3,0.3
			c-16.5,0-29.9-4.1-37.7-10.8v9.6C0,184,16.2,191.9,37.7,191.9z"/>
		<linearGradient id="SVGID_6_" gradientUnits="userSpaceOnUse" x1="-6.804606e-04" y1="226.5499" x2="45.926" y2="226.5499">
			<stop  offset="0" style="stop-color:#7EE068"/>
			<stop  offset="1" style="stop-color:#009671"/>
		</linearGradient>
		<path class="st6" d="M44.9,234.6v-11.4c-2.3,0.2-4.8,0.3-7.3,0.3c-16.5,0-29.9-4.1-37.7-10.8v9.6c0,10.4,16.2,18.2,37.7,18.2
			c2.9,0,5.6-0.1,8.3-0.4C45.3,238.3,44.9,236.5,44.9,234.6z"/>
		<linearGradient id="SVGID_7_" gradientUnits="userSpaceOnUse" x1="-6.804606e-04" y1="202.2576" x2="45.1359" y2="202.2576">
			<stop  offset="0" style="stop-color:#7EE068"/>
			<stop  offset="1" style="stop-color:#009671"/>
		</linearGradient>
		<path class="st7" d="M37.7,216.2c2.5,0,4.9-0.1,7.3-0.3v-3.1l0.2,0.2c-0.1-0.9-0.2-1.7-0.2-2.6v-11.4c-2.3,0.2-4.8,0.3-7.3,0.3
			c-16.5,0-29.9-4.1-37.7-10.8v9.6C0,208.3,16.2,216.2,37.7,216.2z"/>
	</g>
	<linearGradient id="SVGID_8_" gradientUnits="userSpaceOnUse" x1="50.5277" y1="161.7071" x2="125.8342" y2="161.7071">
		<stop  offset="0" style="stop-color:#7EE068"/>
		<stop  offset="1" style="stop-color:#009671"/>
	</linearGradient>
	<ellipse class="st8" cx="88.2" cy="161.7" rx="37.7" ry="18.2"/>
</g>
</svg>
